<svg xmlns="http://www.w3.org/2000/svg" xmlns:xlink="http://www.w3.org/1999/xlink" width="1396" height="267" viewBox="0 0 1396 267">
  <defs>
    <clipPath id="clip-path">
      <rect id="Rectangle_419" data-name="Rectangle 419" width="1396" height="267" transform="translate(0 0)" fill="none"/>
    </clipPath>
  </defs>
  <g id="Layer_2" data-name="Layer 2" transform="translate(-22.54 -9.09)">
    <g id="Design" transform="translate(22.54 9.09)">
      <g id="Group_13" data-name="Group 13" clip-path="url(#clip-path)">
        <path id="Path_2081" data-name="Path 2081" d="M6.41,201.83c44.289.47,88.424,2.95,132.68,4,43.084,1,87.11-3.48,129.812,1.33,60.471,6.8,96.778,38.08,151.534,52.41,62.99,16.48,136.775,10.15,199.4-3.69A601.329,601.329,0,0,0,720.253,224.3c28.051-11.63,52.139-27.2,84.986-32.51,63.307-10.23,130.4,11.33,183.287,32.83,46.982,19.09,103.008,64.23,163.8,51.55,21.537-4.5,39.077-14.65,58.566-21.87,26.518-9.82,49.938-11.39,79.764-9.11,43.687,3.34,87.767,4.71,131.717,4.18,39.756-.48,88.534.24,124.666-12.82" transform="translate(-24.071 -9.09)" fill="none" stroke="rgba(0,144,250,0.25)" stroke-miterlimit="10" stroke-width="1"/>
        <path id="Path_2082" data-name="Path 2082" d="M6.47,194.18c44.322,1.33,88.687,1.66,133.009,1.6,42.274-.05,86.618-3.29,128.377,2.27,59.8,8,99.494,40.08,156.4,51.42,64.731,12.91,142.775,3.34,205.1-11A604.412,604.412,0,0,0,723.2,208.73c28.259-11.6,53.048-26.9,86.245-31.57,60.647-8.54,122.224,13.11,171.9,34.17,47.6,20.15,106.435,66.45,168.385,55.83,22.3-3.82,40.38-14.24,59.968-21.78,26.179-10.07,49.008-12.73,79.183-10.71,85.041,5.68,174.363-.31,258.4-10.1" transform="translate(-24.065 -9.09)" fill="none" stroke="rgba(0,144,250,0.25)" stroke-miterlimit="10" stroke-width="1"/>
        <path id="Path_2083" data-name="Path 2083" d="M6.64,193.62c84.592,2.23,173.575-14,257.214-2.3,59.672,8.32,103.468,40,162.177,48.52,65.311,9.44,144.637-2,206.531-16.31a597.941,597.941,0,0,0,92.968-29.41c27.854-11.47,52.654-26.36,85.665-30.35,59.125-7.16,117.154,16.35,164.071,37.77,48.252,22,106.983,67.77,171.33,58,23.256-3.54,42.263-13.94,62.639-21.61,26.891-10.13,49.982-12.9,80.859-11.34,47.081,2.38,94.424-2.18,140.9-6.59,37.577-3.56,78.833-10.89,116.815-7.21" transform="translate(-24.049 -9.09)" fill="none" stroke="rgba(0,144,250,0.25)" stroke-miterlimit="10" stroke-width="1"/>
        <path id="Path_2084" data-name="Path 2084" d="M6.88,198.3c84.154.49,165.757-23.33,250.284-12,60.033,8,108.231,38.55,168.352,44.59,64.851,6.51,143.082-6.27,204.32-20,34.2-7.67,67.293-17.74,97.917-30.6,26.88-11.29,51.285-25.63,83.629-28.88,58.993-5.91,114.965,21.41,159.505,43.81,48.176,24.23,106.392,68.07,173.159,57.73,24.088-3.73,44.179-13.93,65.694-21.58,28.27-10,52.3-11.91,83.9-11.13,43.216,1.07,86.366-6.09,128.355-12,36.843-5.19,89.574-18,126.4-7.06" transform="translate(-24.026 -9.09)" fill="none" stroke="rgba(0,144,250,0.25)" stroke-miterlimit="10" stroke-width="1"/>
        <path id="Path_2085" data-name="Path 2085" d="M7.17,206.39c45.668-1.17,87.045-12.49,130.764-20.25,39.23-7,78.067-8.33,117.965-2.68,60.658,8.6,115.326,38.92,178.294,39.79,65.081.91,140.695-12.19,201.933-26.37,32.913-7.62,64.731-17.42,94.162-30,25.5-10.93,49.49-24.47,80.618-26.88,129.461-10,193.294,120,321.978,108.5,54.942-4.91,91.786-34.85,150.363-33.85,45.427.78,88.348-8.31,131.542-16.82,36.066-7.11,99.209-25.56,134.3-8.06" transform="translate(-23.999 -9.09)" fill="none" stroke="rgba(0,144,250,0.25)" stroke-miterlimit="10" stroke-width="1"/>
        <path id="Path_2086" data-name="Path 2086" d="M7.47,216c48.34-3,88.687-20.21,133.4-31.35,37.227-9.29,75.056-9.21,113.684-3.52,59.125,8.7,115.019,35.58,176.75,34.48,32.3-.57,65.957-7.51,97.567-12,38.322-5.38,76.523-11.5,113.476-20.29,31.665-7.53,62.2-17.06,90.417-29.37,24.274-10.6,47.76-23.3,77.738-24.86,53.322-2.77,98.092,26.7,134.87,48.69,50.136,30,112.7,74.18,186.845,65.66,25.884-3,48.176-12.39,71.409-20,28.851-9.5,52.555-12.94,84.658-13.09,44.891-.2,87.811-13.88,129.2-24.34,40.161-10.16,93.384-27.42,132.078-7.5" transform="translate(-23.97 -9.09)" fill="none" stroke="rgba(0,144,250,0.25)" stroke-miterlimit="10" stroke-width="1"/>
        <path id="Path_2087" data-name="Path 2087" d="M7.75,225.4c47.924-4.68,84.6-25.61,126.735-40,36.066-12.32,69.691-12.88,109-7.81,63.3,8.17,127.436,36.26,193.6,30.54,32.278-2.78,64.742-10.91,96.494-16.13,37.041-6,74.158-12.16,110.191-20.62,30.329-7.14,59.924-16,87.045-27.65,25.084-10.81,49.271-24.18,80.3-24.94,52.238-1.27,93.067,31,127.217,53.45,48.756,32.17,111.319,73.59,185.98,67.53,26.376-2.14,49.446-10.89,72.877-18.62,33.405-11,60.592-13.46,97.107-15.31,44.333-2.25,87.023-20,126.45-32.1,40.1-12.27,91.884-30.4,128.925-6.19" transform="translate(-23.944 -9.09)" fill="none" stroke="rgba(0,144,250,0.25)" stroke-miterlimit="10" stroke-width="1"/>
        <path id="Path_2088" data-name="Path 2088" d="M8,232.64c47.278-5.87,80.694-29.73,119.771-46.8,38.409-16.78,74.333-16.86,118.173-10.6,62.409,8.9,128.509,34.3,193.655,25.31,36.362-5,72.264-15.46,108.275-22,31.27-5.68,62.661-11.15,93.384-18.07,33.362-7.51,65.826-16.81,95.41-29.74,23.694-10.36,47.376-22.45,76.95-22.24,52.895.37,91.063,37.31,123.582,60.7,46.643,33.54,110.388,72,183.845,66.62,29.968-2.2,55.544-12.72,82.227-21.22,28.008-8.91,52.26-12.06,83.147-13.26,49.522-1.93,95.4-25.79,137.892-40.75,40.588-14.29,89.848-31.63,125.158-3.72" transform="translate(-23.92 -9.09)" fill="none" stroke="rgba(0,144,250,0.25)" stroke-miterlimit="10" stroke-width="1"/>
        <path id="Path_2089" data-name="Path 2089" d="M8.15,235.9c46.763-6.3,77.672-32.49,113.87-51.43S189.9,163.76,234.1,169.57c66.209,8.7,138.845,35.63,207.429,23,36.132-6.67,70.665-18.24,106.819-25.41,34.73-6.89,69.877-12.91,104.169-20.78C684.635,139,715.533,130,744.1,117.57c22.719-9.88,46.369-20.73,74.683-19.57,50.365,2.07,83.869,38.83,113.355,62.05,45.482,35.82,112.775,76.83,188.323,71.41,28.982-2.08,53.65-12.14,79.151-20.77,31.38-10.63,57.449-12.27,91.391-15.65,73.118-7.27,193.8-107.75,257.663-48.67" transform="translate(-23.906 -9.09)" fill="none" stroke="rgba(0,144,250,0.25)" stroke-miterlimit="10" stroke-width="1"/>
        <path id="Path_2090" data-name="Path 2090" d="M8.2,233.35c70.534-8.63,100.994-73.85,174.385-74.56,57.9-.56,114.647,18,170.662,25.63,23.9,3.25,48.822,5.26,73,2.19,28.643-3.64,54.69-15,81.855-21.93,55.216-14,113.147-22.24,168.615-35.66,23.124-5.6,45.7-12.18,66.866-20.62s41.5-18.94,66.789-21.08c41.168-3.47,69.745,17.54,93.264,37.35,59.563,50.17,149.432,127.49,258.09,94,21.657-6.68,40.993-16.39,62.88-22.75,27.11-7.89,56.475-5.25,83.213-12.93,46.424-13.32,84.483-37.88,128.038-54.69,42.7-16.46,81.636-23.41,111.231,7.81" transform="translate(-23.901 -9.09)" fill="none" stroke="rgba(0,144,250,0.25)" stroke-miterlimit="10" stroke-width="1"/>
        <path id="Path_2091" data-name="Path 2091" d="M8.07,224.64c70.26-9,99.636-76.55,173.1-76.16,57.734.31,114.855,20.39,171.024,27.76,24.219,3.18,49.555,5,73.906,1.45,28.73-4.18,54.822-16,82.326-23,56.234-14.2,115.381-21.7,172.392-34.17,23.529-5.12,46.676-11.19,68.42-19.24,21.9-8.1,42.274-17.79,67.72-19.94,42.143-3.57,71.1,16.54,95.8,36.79,57.318,47,147.582,128.27,251.422,93.11,20.2-6.83,37.917-16.62,58.336-23.18,26.278-8.43,54.9-6.25,81.143-14,46.665-13.71,84.658-38.7,128.268-56,42.581-16.9,81.5-24.13,112.545,6.52" transform="translate(-23.913 -9.09)" fill="none" stroke="rgba(0,144,250,0.25)" stroke-miterlimit="10" stroke-width="1"/>
        <path id="Path_2092" data-name="Path 2092" d="M7.44,215.33c46.676-8.22,74.234-37.77,108.067-58.84,14.037-8.75,30.657-18.56,50.584-19.91,17.015-1.14,38.65,4.61,54.745,7.78,66.384,13.08,146.18,41.64,216.583,26.11,37.139-8.2,71.223-21,109.337-28.17,36.723-6.91,74.114-12,111.056-18.33,33.7-5.77,66.789-12.69,97.873-23.31,26.365-9,52-19.77,82.731-19.61,54.636.29,91.764,39.49,124.26,63.88,41.606,31.23,107.366,75.25,175.962,67.47,24.58-2.79,44.3-13.08,64.906-21.73,27.208-11.42,49.8-13.2,80.421-17.27,75.964-10.1,187.995-113.86,258.156-53.25" transform="translate(-23.973 -9.09)" fill="none" stroke="rgba(0,144,250,0.25)" stroke-miterlimit="10" stroke-width="1"/>
        <path id="Path_2093" data-name="Path 2093" d="M6.42,206.11c45.362-10.27,71.169-40,104.246-61.51,12.044-7.82,29.5-19.32,47.891-19,18.1.35,40.172,7.84,56.935,12,67.315,16.61,150.264,47.37,223.568,30.82,38.431-8.68,73.687-20.53,113.519-27.15,33.646-5.59,67.731-9.84,101.541-14.94,35.376-5.34,70.534-11.6,103.5-21.95,27.657-8.68,54.417-19.36,85.643-21,57.657-3,100.118,35,136.37,59.53,41.179,27.91,101.695,69.44,165.33,64.84,23.8-1.72,42.822-11.17,62.475-19.46,25.938-10.94,47.223-14.23,77.136-16.83,78.384-6.82,184.239-104.76,255.89-48.3" transform="translate(-24.07 -9.09)" fill="none" stroke="rgba(0,144,250,0.25)" stroke-miterlimit="10" stroke-width="1"/>
        <path id="Path_2094" data-name="Path 2094" d="M5.17,197c43.457-11.78,67.139-41.28,99.176-62.76,11.781-7.9,26.913-18.1,45.165-16.69,19.15,1.48,41.88,10.83,59.453,15.92,63.953,18.54,147.374,50.35,219.889,37.43,38.935-6.93,74.848-20,114.658-26.36,40.139-6.37,80.913-10.67,121.26-16.38,32.256-4.57,64.6-10,94.928-18.77,29-8.43,57.263-19.17,88.95-22.61,56.606-6.15,101.64,25.3,139.819,48.76,43.621,26.8,108.133,74.1,173.542,67.7,19.5-1.91,35.617-9.39,52.041-16.13,24.789-10.17,45.143-14.29,73.873-16,49.479-3,89.99-24.22,131.969-40.17,42.515-16.15,82.884-26.93,119.684.29" transform="translate(-24.188 -9.09)" fill="none" stroke="rgba(0,144,250,0.25)" stroke-miterlimit="10" stroke-width="1"/>
        <path id="Path_2095" data-name="Path 2095" d="M3.84,188.1c40.84-9,64.6-41.71,93.417-61.13,11.847-8,24.373-16.14,42.219-14,20.091,2.47,42.964,13,61.391,18.8,65.694,20.8,151.6,53.73,226.645,39.81,39.887-7.41,76.413-19.73,117.538-25.6,36.592-5.23,73.621-8.86,110.41-13.35,38.42-4.69,77.289-10,113.41-20.35,27.942-8,55.654-16.94,85.183-22,60.461-10.45,113.311,22.15,156.177,46.15,42.482,23.78,103,66.95,162.878,63.24,21.5-1.34,38.836-9.89,57.132-16.72,21.132-7.88,40.03-11.16,64.271-11.8,48.318-1.28,86.946-18,128.99-32.36,42.252-14.4,79.818-22.27,115.644,3" transform="translate(-24.315 -9.09)" fill="none" stroke="rgba(0,144,250,0.25)" stroke-miterlimit="10" stroke-width="1"/>
        <path id="Path_2096" data-name="Path 2096" d="M2.59,179.39c39.307-8.13,60.833-39,89.782-56.62,13.774-8.37,22.785-12.46,40.906-8.94,16.15,3.14,32.048,10.17,47.3,15.09C249.02,151,338.911,185.36,417.843,172c40.249-6.8,77.026-19.5,118.425-25.06,38.157-5.12,76.775-8.37,115.206-12.4,40.281-4.22,81.2-8.87,119.454-18.72,29.365-7.56,58.128-16.77,88.041-23.28,61.052-13.28,117.264,15.62,163.14,39.21,29.332,15.08,58.424,30.4,88.687,44.65,21.591,10.17,47.168,20.36,74.453,19.18,19.413-.83,35.289-7.74,52.063-13.64,23.354-8.21,43.555-10.91,69.734-11.06,43.938-.27,79.775-12.5,119.268-24.18,42.263-12.5,77.519-17.85,112.676,5.76" transform="translate(-24.433 -9.09)" fill="none" stroke="rgba(0,144,250,0.25)" stroke-miterlimit="10" stroke-width="1"/>
        <path id="Path_2097" data-name="Path 2097" d="M1.58,170.93c38.628-5.27,57.9-34.05,88.851-47.63,30.537-13.4,60.012,3.17,89.782,12,69.493,20.6,165.462,51.7,242.5,30.7,78.975-21.51,157.666-27,241.754-34.55,70.84-6.37,132.33-22,198.615-38.79,61.128-15.53,120.166,10.19,168.33,33.46,32.716,15.8,64.3,32.79,97.621,48,19.391,8.85,42.066,17.48,66.264,16.82,17.387-.48,32.2-6.19,47.42-11.19,25.7-8.46,47.081-11.08,75.548-9.92,76.205,3.1,154.6-50.5,220.765-9" transform="translate(-24.529 -9.09)" fill="none" stroke="rgba(0,144,250,0.25)" stroke-miterlimit="10" stroke-width="1"/>
        <path id="Path_2098" data-name="Path 2098" d="M1,162.77c38.464-1.82,59.519-28.38,92.957-37.44,30.033-8.13,65.223,10,92.683,17.44,68.377,18.55,158.465,42.64,231.254,21.57,40.511-11.73,77.191-20.35,121.326-24.7,40.752-4,81.866-6,122.793-9,73.446-5.29,136.786-17.86,204.112-37.73,62.88-18.56,126.067,6.3,177.374,29.93,29.639,13.66,58.435,28.17,87.592,42.27,20.387,9.85,44.475,20.06,70.534,19.55,18.384-.35,33.811-6.52,50.179-11.42,22.008-6.58,42.46-9.32,66.7-7.78,39.515,2.52,73.785-3.48,111.2-10.91,42.044-8.34,74.333-10.14,109.49,9.64" transform="translate(-24.584 -9.09)" fill="none" stroke="rgba(0,144,250,0.25)" stroke-miterlimit="10" stroke-width="1"/>
        <path id="Path_2099" data-name="Path 2099" d="M.81,153.9c39.493.27,64.479-24.56,101.016-29.49,30.876-4.15,67.205,15.14,94.9,23,67.413,19.17,158.213,42.72,229.075,18.44,76.293-26.13,161.071-26.63,244.886-32.38,71.508-4.9,133.37-15.68,196.458-38.28,59.617-21.35,124.162-1.21,176.279,20.84,32.278,13.65,62.519,29.31,94.227,43.52,19.905,8.92,42.581,17.92,67.435,16.72,40.358-1.95,69.1-22.26,112.228-19.56,39.5,2.47,74.2-.35,112.556-6.41,41.409-6.54,73.293-7.53,109.238,9.58" transform="translate(-24.602 -9.09)" fill="none" stroke="rgba(0,144,250,0.25)" stroke-miterlimit="10" stroke-width="1"/>
        <path id="Path_2100" data-name="Path 2100" d="M.67,144.63c39.241-1.2,68.289-18.51,105.768-23,33.942-4.06,67.139,16.72,96.45,26.39,67.621,22.33,161.9,48.79,234.681,21.38,68.563-25.83,153.472-25.53,229.82-31,73.15-5.24,135.987-15.06,197.849-41.93,58.7-25.48,126.045-9,181.283,12.5,30.657,11.91,59.267,25.94,89.016,38.83,19.227,8.33,41.267,16.32,64.785,16,40.216-.48,72.9-20.33,114.9-19.27,40.435,1,74.99.59,114.647-5.85s71.169-9,108.472,4.15" transform="translate(-24.616 -9.09)" fill="none" stroke="rgba(0,144,250,0.25)" stroke-miterlimit="10" stroke-width="1"/>
        <path id="Path_2101" data-name="Path 2101" d="M.53,135.66c39.23-1,71.048-15.11,108.866-19.48,38.322-4.43,67.523,17.78,98.432,30,61.391,24.29,156.483,56.09,227.893,32.24,33.7-11.27,62.99-19.64,100.359-24.21,41.8-5.1,84.231-7.49,126.385-10.83,39.088-3.1,79.052-6.4,116.684-14.54,33.646-7.27,55.008-17.9,82.4-32.08C918.9,67.08,988.8,79.13,1047.683,99.83c47.015,16.53,97.851,51.6,154.272,49.78,18.208-.58,34.96-5.75,52.008-9.58,26.989-6.06,51.756-7.46,80.114-6.73,69.055,1.78,135.308-27.33,202.853-12.86" transform="translate(-24.629 -9.09)" fill="none" stroke="rgba(0,144,250,0.25)" stroke-miterlimit="10" stroke-width="1"/>
        <path id="Path_2102" data-name="Path 2102" d="M.39,127c40.227-1.33,74.815-15.23,114.176-18.23,40.358-3.07,68.979,21.93,99.778,35.88,58.38,26.42,154.381,62.38,225.55,37.73,33.055-11.45,62-19.72,99.308-24.43,42.154-5.34,84.855-7.95,127.3-11.68,36.537-3.21,73.545-6.7,108.636-14.52,34.435-7.68,54.668-19.43,81.209-35.12,54.187-32,121.534-27.33,183.506-8.74,50.1,15,100.534,48.29,157.863,48,19.018-.09,36.876-4.55,54.964-8,27.822-5.25,54.033-6.62,82.95-6.63,69.187,0,131.388-28.11,199.984-22.65" transform="translate(-24.642 -9.09)" fill="none" stroke="rgba(0,144,250,0.25)" stroke-miterlimit="10" stroke-width="1"/>
        <path id="Path_2103" data-name="Path 2103" d="M.25,118.6c39.416-2.08,74.453-16,113.421-18,40.435-2.09,68.979,26.09,98.87,40.79,58.03,28.54,153.44,66.15,226.13,40.63,67.008-23.53,135.647-27.91,210.221-34.16,40.249-3.37,81.373-6.75,120.155-15.14,37.052-8,53.76-20,80.683-37.75,53.2-35,124.228-33.88,189.539-16.29,50.1,13.5,98.322,43.6,154.206,44.83,19.456.43,38.048-3.29,56.792-6.22,28.577-4.48,55.435-5.73,84.778-6,70.49-.71,130.764-25.78,199.907-27.63" transform="translate(-24.655 -9.09)" fill="none" stroke="rgba(0,144,250,0.25)" stroke-miterlimit="10" stroke-width="1"/>
        <path id="Path_2104" data-name="Path 2104" d="M.13,111.27c38.157-.61,72.493-12.82,110.125-14,39.635-1.28,66.318,25.45,95.508,40.05,57.132,28.57,147.374,63.91,219.922,41.54,33.537-10.35,60.439-20.05,97.928-24.92,42.285-5.48,85.293-8.08,127.972-11.72,37.1-3.22,74.607-6.52,110.3-14.22,36.044-7.75,55.4-20,82.227-36.95,54.46-34.32,124.939-35,191.936-18.53,51.778,12.7,101.826,43.83,158.618,43.91,19.533,0,38.234-4,57.066-7,28.785-4.53,56.169-5.11,85.709-5.33,69.745-.54,129.1-24.59,197.323-27.66" transform="translate(-24.667 -9.09)" fill="none" stroke="rgba(0,144,250,0.25)" stroke-miterlimit="10" stroke-width="1"/>
        <path id="Path_2105" data-name="Path 2105" d="M.07,104.34c37.5,1.14,71.661-9.47,108.6-9.65,38.88-.19,64.851,25.42,93.833,39.79C258.62,162.3,345.982,195.93,416.768,174c33.832-10.48,61.106-20.33,98.924-25.26,42.208-5.51,85.151-8.05,127.775-11.57,37.227-3.07,74.957-6.26,110.9-13.73,36.208-7.51,56.935-19.63,84.516-36.15,55.84-33.49,127.282-34.73,195.331-19.23,51.953,11.83,102.921,43,159.253,42.38,19.862-.23,38.781-4.65,57.887-7.79,28.862-4.74,56.092-5.06,85.753-5.13,70.074-.16,129.275-23.44,197.52-27.72" transform="translate(-24.672 -9.09)" fill="none" stroke="rgba(0,144,250,0.25)" stroke-miterlimit="10" stroke-width="1"/>
        <path id="Path_2106" data-name="Path 2106" d="M0,97.65c36.887,2.82,70.928-6.23,107.3-5.46,38.168.8,63.57,25.25,92.454,39.36,55.424,27.07,140.147,58.83,209.356,37.29,34.04-10.6,61.632-20.49,99.636-25.43,42.165-5.41,84.942-7.88,127.392-11.21,37.3-2.93,75.1-5.92,111.209-13.12,36.307-7.23,58.3-19.07,86.5-35.16,57.1-32.57,129.33-34.23,198.177-19.55,32.672,7,63.176,16.84,92.9,28.14,20.65,7.86,42.953,13.34,66.931,12.69,20.256-.56,39.416-5.41,58.884-8.78,28.993-5,56.092-5.18,85.961-5.1,70.446.19,129.527-22.3,197.805-27.81" transform="translate(-24.679 -9.09)" fill="none" stroke="rgba(0,144,250,0.25)" stroke-miterlimit="10" stroke-width="1"/>
        <path id="Path_2107" data-name="Path 2107" d="M.06,91.22c36.3,4.4,70.282-3.24,106.271-1.48,37.555,1.83,62.409,24.93,91.37,38.79,55.03,26.31,137.388,56.05,205.163,34.84,34.161-10.7,62-20.57,100.227-25.45,41.771-5.34,84.307-7.59,126.494-10.66,37.292-2.72,75.066-5.46,111.275-12.33s59.453-18.4,88.216-34c58.238-31.56,131.082-33.48,200.367-19.51a581.171,581.171,0,0,1,93.067,27.22c20.8,7.95,43.194,13.1,67.315,12,20.716-.93,40.216-6.28,60.044-9.93,29.168-5.38,56.169-5.47,86.322-5.24,70.851.52,129.833-21.14,198.177-27.91" transform="translate(-24.673 -9.09)" fill="none" stroke="rgba(0,144,250,0.25)" stroke-miterlimit="10" stroke-width="1"/>
        <path id="Path_2108" data-name="Path 2108" d="M.12,85c35.486,5.87,68.979-.15,104.552,2.26,37.227,2.52,60.471,23.6,89.574,37.27,53.574,25.16,134.739,53.94,200.717,34,33.865-10.23,60.855-20.68,98.048-25.59,40.851-5.39,82.523-7.48,123.91-10.17,39.679-2.57,80.3-4.93,118.917-12,36.526-6.64,59.234-17.4,88.6-32.65C884.735,46.89,961.729,46,1032.1,60.28c32.256,6.54,61.128,16.44,90.975,26.65,21.088,7.21,42.6,11.58,66.515,9.72,21.055-1.64,40.763-7.54,60.975-11.45,29.65-5.72,57.011-5.37,87.592-5.15,70.545.53,128.344-20.07,195.987-28" transform="translate(-24.668 -9.09)" fill="none" stroke="rgba(0,144,250,0.25)" stroke-miterlimit="10" stroke-width="1"/>
        <path id="Path_2109" data-name="Path 2109" d="M.2,79.11c35.037,7.27,68.475,2.71,103.9,5.85,36.438,3.24,59.858,23.26,89.048,36.49,53.7,24.33,132.921,50.94,197.794,31.16,33.854-10.32,61-20.6,98.224-25.36,40.446-5.17,81.691-7,122.629-9.32,39.482-2.25,79.928-4.21,118.436-10.79,36.351-6.21,60.055-16.52,89.782-31.16,61.216-30.12,138.472-31.07,208.973-17.31,32.2,6.28,60.9,16,90.691,26,21.416,7.2,43.128,11.1,67.216,8.72,21.613-2.14,41.672-8.6,62.409-12.88,29.88-6.18,57.219-5.9,88.172-5.53,71.026.83,128.782-18.92,196.546-28.18" transform="translate(-24.66 -9.09)" fill="none" stroke="rgba(0,144,250,0.25)" stroke-miterlimit="10" stroke-width="1"/>
        <path id="Path_2110" data-name="Path 2110" d="M.32,73.44C34.569,82,67.689,79,102.89,82.62c35.716,3.69,58.709,22.11,87.833,34.89,52.895,23.21,131.016,48.53,194.476,29.84,32.749-9.64,59.924-20.56,95.913-25.26,39.416-5.16,79.676-6.75,119.651-8.65,39.263-1.88,79.15-3.29,117.757-8.82,38.092-5.45,65.76-15.85,97.37-30.39,62.19-28.62,137.279-29.95,207.977-16.84,31.873,5.9,60.8,14.64,89.968,24.86,21.668,7.6,43.522,11.38,67.884,8.68,21.975-2.44,42.23-9.09,63.154-13.93,28.467-6.59,54.614-7.59,84.494-7,37.424.75,73.84-1.24,109.884-8.3,31.829-6.24,62.234-14.75,94.61-19.8" transform="translate(-24.649 -9.09)" fill="none" stroke="rgba(0,144,250,0.25)" stroke-miterlimit="10" stroke-width="1"/>
        <path id="Path_2111" data-name="Path 2111" d="M.47,68c35.617,10.28,71.081,7.64,107.881,13.26,33.679,5.15,58.3,23.45,87.351,35.19,57.241,23.13,131.06,43.15,195.4,21.78,32.847-10.9,62.136-19.36,98.9-23.29,38.913-4.16,78.406-5.19,117.68-6.7,75.143-2.87,140.345-7.71,204.166-35.68,61.632-27,137.454-28.29,206.772-15.93,31.884,5.68,59.858,14.48,89.114,24.11,22.292,7.34,43.8,11.35,68.53,8.48,51.274-5.93,90.023-25.65,144.615-23.8,38.026,1.29,75.723.07,112.654-6.49,33.942-6,66.187-15.58,100.195-21.55" transform="translate(-24.634 -9.09)" fill="none" stroke="rgba(0,144,250,0.25)" stroke-miterlimit="10" stroke-width="1"/>
        <path id="Path_2112" data-name="Path 2112" d="M.64,62.85C35.885,74.33,71.316,73.09,108.335,79.23c33.154,5.5,58.161,22.74,87.439,33.91,58.03,22.16,130.293,39.9,194.126,18.68,69.614-23.15,137.574-26.09,214.382-28.15,74.245-2,139.567-5.94,203.761-32.34,62.256-25.6,137.892-26.67,206.871-14.57,31.686,5.56,59.223,14.34,88.37,23.72,22.719,7.31,44.541,10.71,69.428,7.26,52.358-7.24,91.118-28.42,147.385-26.44,38.048,1.34,75.9.54,112.961-5.9,34.161-5.94,66.625-15.61,100.49-22.24" transform="translate(-24.618 -9.09)" fill="none" stroke="rgba(0,144,250,0.25)" stroke-miterlimit="10" stroke-width="1"/>
        <path id="Path_2113" data-name="Path 2113" d="M.83,57.94C35.484,70.47,70.521,70.73,107.649,77.15c34.719,6,61.993,23.58,93.6,34.51,56.267,19.48,125.322,34.33,185.6,14.72,32.551-10.59,59.4-18.94,95.9-22.57,37.227-3.68,74.957-4,112.457-4.51,75.548-1,142.337-3.4,209.258-28.8,64.906-24.66,141.385-25.14,211.885-12.2,51.9,9.53,99.472,37.81,155.093,28,53.1-9.35,92.837-30.85,150.593-28.68,37.522,1.4,74.9.58,111.494-5.6,34.106-5.75,66.471-15.56,99.91-22.78" transform="translate(-24.6 -9.09)" fill="none" stroke="rgba(0,144,250,0.25)" stroke-miterlimit="10" stroke-width="1"/>
        <path id="Path_2114" data-name="Path 2114" d="M1,53.28c36.285,14.35,73.621,14.62,112.523,23,31.216,6.7,57.165,21.84,86.629,31.42,55.971,18.2,124.972,32.08,184.272,13.21,31.369-10,58.435-18.94,93.428-22.4,41.322-4.09,83.344-3.56,124.994-3.59,71.333,0,134.552-2.41,198.122-25.13,62.18-22.22,135.768-23.1,202.907-11.9,55.479,9.25,107.377,39.95,166.141,27.31,54.417-11.71,93.855-33.25,153.768-30.9,77.6,3.01,137.815-11.68,209.509-28.66" transform="translate(-24.584 -9.09)" fill="none" stroke="rgba(0,144,250,0.25)" stroke-miterlimit="10" stroke-width="1"/>
        <path id="Path_2115" data-name="Path 2115" d="M1.26,48.88C37.041,64.19,73.885,65.93,113.115,74.37c30.821,6.62,56.836,20.48,86.311,29.41,55.741,16.9,124.731,29.74,183.21,11.55,35.825-11.14,65.628-20.6,105.789-23.42,35.343-2.48,71.015-1.76,106.468-1.25,71.9,1,137.169.24,202.885-21.21,64.512-21.06,138.921-21.37,207.3-9.29,53.573,9.47,101.826,38,158.761,25.19,57.92-13,97.446-36.79,161.695-34.15,76.534,3.15,137.29-10.75,207.648-28.88" transform="translate(-24.56 -9.09)" fill="none" stroke="rgba(0,144,250,0.25)" stroke-miterlimit="10" stroke-width="1"/>
        <path id="Path_2116" data-name="Path 2116" d="M1.49,44.74C36.8,60.91,73.217,64.07,112.787,72.58c30.351,6.53,56.727,19.23,86.147,27.47,61.512,17.21,131.2,27.19,193.152,6,127.118-43.52,273.1,2.43,402.6-36.8,65.946-20,142.6-19.3,211.316-6.4,51.942,9.75,95.892,36,151.425,23.26,28.675-6.57,53.65-18.78,81.11-27.24,29.475-9.1,56.333-11.8,88.567-10.42,75.548,3.26,136.961-9.91,205.918-29.14" transform="translate(-24.538 -9.09)" fill="none" stroke="rgba(0,144,250,0.25)" stroke-miterlimit="10" stroke-width="1"/>
        <path id="Path_2117" data-name="Path 2117" d="M1.73,40.86c34.862,17,70.873,21.48,110.815,30.05,29.924,6.42,56.7,18,86.125,25.55,62.048,15.89,130.786,24.5,192.7,4.29,67.424-22,130.293-21.38,204.276-17.88,68.333,3.24,131.793,4.06,196.174-13.48C855.732,52,927.743,52,993.941,63.45c56.88,9.82,101.76,38.24,161.947,22.43,61.588-16.17,102.154-43.12,172.7-39.93,74.858,3.37,136.611-9.09,204.265-29.43" transform="translate(-24.515 -9.09)" fill="none" stroke="rgba(0,144,250,0.25)" stroke-miterlimit="10" stroke-width="1"/>
        <path id="Path_2118" data-name="Path 2118" d="M2,37.24C36.533,55,72.6,61.08,113.22,69.52c29.946,6.22,57.231,17.07,87,23.9,63.3,14.53,131.388,21.32,193.469,1.17C460.271,73,521.881,74.47,594.572,79.21c67.249,4.4,130.173,6.25,194.509-9.51C853.133,54,924.51,54.31,990.061,65.77c57.855,10.11,100.731,38,161.826,20.77,62.1-17.54,103.775-46.42,175.819-42.93,75.253,3.66,137.6-7.85,205.01-29.6" transform="translate(-24.489 -9.09)" fill="none" stroke="rgba(0,144,250,0.25)" stroke-miterlimit="10" stroke-width="1"/>
        <path id="Path_2119" data-name="Path 2119" d="M2.23,33.88C36.369,52.23,72.052,59.61,113.089,68.07c29.759,6.15,57.274,15.92,87.143,22.07,63.077,13,131.958,19,193.327-.54,33.592-10.72,62.9-18.17,100.731-18.95,31.533-.65,63.012,2,94.227,4.66C656.861,81,720.234,84.77,786.5,70.14c65.333-14.42,138.6-13.28,204.462-1,27.471,5.12,50.2,14.22,76.107,21.35,28.741,7.92,55.971,4.69,83.486-3.9,62.311-19.46,105.3-48.69,178.6-44.94,74.8,3.83,137.2-7,203.433-29.9" transform="translate(-24.467 -9.09)" fill="none" stroke="rgba(0,144,250,0.25)" stroke-miterlimit="10" stroke-width="1"/>
        <path id="Path_2120" data-name="Path 2120" d="M2.48,30.78c33.723,18.93,69.154,27.52,110.5,36,29.562,6,57.428,14.82,87.362,20.27,63.023,11.47,132.275,16.82,193.261-2.26,33.154-10.37,61.315-18.21,98.684-18.92,30.438-.58,60.789,2.5,90.789,5.57,68.727,7,133.25,12.39,201.046-.56,65.2-12.45,136.381-11.35,201.56.69,28.6,5.28,52.391,15.69,79.731,22.4,27.066,6.64,53.475,2.56,78.691-5.58,60.526-19.52,105.746-52,177.319-49,79.085,3.27,141.242-4,211.042-29.63" transform="translate(-24.444 -9.09)" fill="none" stroke="rgba(0,144,250,0.25)" stroke-miterlimit="10" stroke-width="1"/>
        <path id="Path_2121" data-name="Path 2121" d="M2.72,27.94C36.049,47.39,71.2,57.14,112.889,65.6c33.854,6.87,66,15.56,100.731,20.54,65.869,9.44,129.691,9.78,191.345-9.78,61.906-19.64,120.078-15.2,186.024-7.13,64.895,8,125.914,13.23,190.885,2.46C846.265,61,916.788,62.31,980.708,74.06c29.562,5.44,54.515,17.27,83.212,23.28,25.413,5.34,50.508.73,73.818-6.8,58.03-18.77,106.808-56.24,176.049-53.28,41.245,1.76,81.373,4.22,122.257-1.75,34.708-5.07,65.837-15.64,96.351-27.57" transform="translate(-24.421 -9.09)" fill="none" stroke="rgba(0,144,250,0.25)" stroke-miterlimit="10" stroke-width="1"/>
        <path id="Path_2122" data-name="Path 2122" d="M3,25.36C58.917,59.19,140.826,74.28,213.769,83.17c65.355,8,130.293,8.17,191.52-11,61.665-19.3,115.775-15.76,180.659-6.48,65.508,9.36,127.392,16.15,193.8,7,65.957-9.07,137.169-7.6,201.933,5,25.4,5,46.161,14.11,70.26,20.46,29.365,7.74,57.92,2.13,84.767-7.27,58.271-20.36,107.914-58.55,178.7-54.88,81.318,4.21,146.388-.41,216.791-29.63" transform="translate(-24.394 -9.09)" fill="none" stroke="rgba(0,144,250,0.25)" stroke-miterlimit="10" stroke-width="1"/>
        <path id="Path_2123" data-name="Path 2123" d="M3.18,23.05C59.622,58.29,139.156,72.8,213.9,80.44c65.18,6.66,130.753,6.59,191.608-12.13,31.467-9.68,59.19-16.32,94.446-15.47,31.752.76,62.749,6.39,93.439,11.45,62.18,10.27,120.625,16,184.414,9.54,64.074-6.48,130.72-5.84,193.622,5.45,28.632,5.14,52.052,16.09,79.424,22.41,29.76,6.87,59.059-.68,85.172-10.48,58.183-21.83,108.965-60.6,180.976-56.27,80.377,4.83,146.4.22,215.094-29.93" transform="translate(-24.377 -9.09)" fill="none" stroke="rgba(0,144,250,0.25)" stroke-miterlimit="10" stroke-width="1"/>
        <path id="Path_2124" data-name="Path 2124" d="M3.39,21C60.325,57.63,137.461,71.57,213.983,78c64.742,5.41,131.147,5,191.674-13.19,31.183-9.42,58.26-16.7,93.165-15.81,30.723.79,60.526,6.68,89.946,12.17,62.585,11.68,122.3,19.5,187.316,13.94,64.84-5.56,133.578-4.11,196.8,7.79,27.373,5.16,50.53,16.87,77.18,22,28.1,5.44,55.84-2.17,80.1-11.42,60.5-23.1,113.18-64.54,188.5-59.43,79.49,5.38,146.378.82,213.375-30.25" transform="translate(-24.357 -9.09)" fill="none" stroke="rgba(0,144,250,0.25)" stroke-miterlimit="10" stroke-width="1"/>
        <path id="Path_2125" data-name="Path 2125" d="M3.59,19.22c57.384,37.97,132.166,51.35,210.385,56.5,70.818,4.67,137.607,1.62,203.2-17.83,58.544-17.35,107.99-12,167.257.31,63.658,13.21,123.1,21.74,189.987,18.23,66.384-3.48,135.56-2.63,199.951,10,23.584,4.63,42.493,13.49,64.851,19.28,29.562,7.67,59.059.17,85.216-9.73,63.5-24,116.651-68.48,195.823-62.56,78.691,5.88,146.334,1.41,211.688-30.55" transform="translate(-24.338 -9.09)" fill="none" stroke="rgba(0,144,250,0.25)" stroke-miterlimit="10" stroke-width="1"/>
        <path id="Path_2126" data-name="Path 2126" d="M3.76,17.7C61.6,57,134.021,69.79,213.839,73.75c70.074,3.48,138.012.5,203.093-18.46C479.451,37.08,528.481,43.5,591.12,57.91c60.066,13.81,118.074,22.31,181.83,20s130.392-1.06,192.506,10c26.683,4.73,48.176,15.16,73.665,20.91,29.956,6.76,59.935-2.42,85.4-12.63,63.5-25.4,117.034-69.69,197.312-63.19,77.946,6.32,146.213,2,210-30.86" transform="translate(-24.322 -9.09)" fill="none" stroke="rgba(0,144,250,0.25)" stroke-miterlimit="10" stroke-width="1"/>
        <path id="Path_2127" data-name="Path 2127" d="M3.91,16.44C62.137,57,132.243,69.23,213.551,72.06c69.384,2.41,138.089-.57,202.765-18.93,29.869-8.48,56.639-15.13,89.705-13.06,28.051,1.79,54.6,8.8,80.782,15.37,61.161,15.33,119.246,24.44,184.732,23.92,65.2-.51,132.625.15,195.987,11.66,25.61,4.65,46.993,15.66,71.815,20.37,30.263,5.73,60.723-4.76,85.654-15.34,63.22-26.84,117.406-70.44,198.451-63.44,77.278,6.68,146.016,2.56,208.316-31.17" transform="translate(-24.308 -9.09)" fill="none" stroke="rgba(0,144,250,0.25)" stroke-miterlimit="10" stroke-width="1"/>
        <path id="Path_2128" data-name="Path 2128" d="M4,15.46C49.6,48,102.344,64.85,168.235,69.09,221.1,72.5,276.554,72.56,329.1,67.22a523.381,523.381,0,0,0,74.256-12.61c25.27-6.34,48.176-14.93,75.439-16.75,44.125-2.92,84.417,10.3,124.359,20.92,99.943,26.6,201.221,18.54,305.664,27.48,22.248,1.9,44.486,4.42,66.044,8.63,20.124,3.93,36.241,11.51,55.3,16.58,48.92,13,100.194-17.14,136.282-35.47,27.022-13.72,54.022-28.42,85.1-37.81,33.7-10.18,62.212-6.17,97.7-3.87,68.782,4.44,128.826-2.81,182.542-33.36" transform="translate(-24.299 -9.09)" fill="none" stroke="rgba(0,144,250,0.25)" stroke-miterlimit="10" stroke-width="1"/>
        <path id="Path_2129" data-name="Path 2129" d="M4.13,14.74C49.4,47.8,100.952,65.41,167.6,68.55c54.9,2.59,111.954,2.12,166.294-3.89a560.469,560.469,0,0,0,73.84-12.91c24.92-6.23,48-14.46,75-15.86,43.1-2.24,82.118,11.63,120.636,22.54,98.2,27.82,200.093,21.81,303.671,30.16,44.223,3.56,79.523,11.61,119.563,23.51,48.176,14.31,99.778-15.83,135.461-34.15,28.829-14.8,57.712-31.06,91.249-40.82s62.245-5.16,97.271-2.78C1419.094,39,1479.149,32,1531.737.64" transform="translate(-24.287 -9.09)" fill="none" stroke="rgba(0,144,250,0.25)" stroke-miterlimit="10" stroke-width="1"/>
        <path id="Path_2130" data-name="Path 2130" d="M4.19,14.29C51.063,49.33,103.18,66.84,173.111,68.4c52.818,1.18,106.643.56,158.881-5.12A618.178,618.178,0,0,0,405.625,51c25.04-5.85,48.57-14.35,75.329-16.14,44.2-2.94,83.278,11.94,122.344,23.55C699.978,87.14,802.68,83.19,905.59,90.75a522.891,522.891,0,0,1,118.1,21.81c50.541,15.16,102.921-16.5,140.257-35.85,26.989-14,54.1-29,85.14-38.83,32.989-10.4,60.482-6.74,95.256-3.92,70.8,5.73,133.709.07,187.36-33.51" transform="translate(-24.281 -9.09)" fill="none" stroke="rgba(0,144,250,0.25)" stroke-miterlimit="10" stroke-width="1"/>
        <path id="Path_2131" data-name="Path 2131" d="M4.22,14.11c46.588,35.62,97.074,53.53,167.838,54.1,52.555.43,105.625-.33,157.6-5.83a675.343,675.343,0,0,0,79.271-12.87c24.876-5.69,48.285-13.8,74.837-15.31,43.457-2.46,81.176,12.72,119.268,24.51,95.355,29.52,199.2,27.3,301.558,34,44.771,2.91,80.793,9.66,121.589,21.23,47.924,13.6,99.165-17.41,134.136-35.57,28.675-14.89,57.559-31.57,90.964-41.52,32.847-9.8,60.285-5.48,94.632-2.58,70.38,6,133.479.48,185.794-33.85" transform="translate(-24.279 -9.09)" fill="none" stroke="rgba(0,144,250,0.25)" stroke-miterlimit="10" stroke-width="1"/>
      </g>
    </g>
  </g>
</svg>
