<svg xmlns="http://www.w3.org/2000/svg" width="120.622" height="24.495" viewBox="0 0 120.622 24.495">
  <g id="small_wave" data-name="small wave" transform="translate(0.111 0.222)">
    <g id="turtle_outline" data-name="turtle outline" transform="translate(0 0.028)">
      <path id="Path_2069" data-name="Path 2069" d="M0,10.52C9.9,5.6,22.774,7,33.8,10.016s21.637,7.5,33.237,8.385c16.9,1.287,33.043-5.215,48.073-11.531" transform="translate(0 5.435)" fill="none" stroke="rgba(162,162,162,0.25)" stroke-miterlimit="10" stroke-width="0.5"/>
      <path id="Path_2070" data-name="Path 2070" d="M1.53,12.028C7.54,9.588,14.733,9,21.843,9.429a90.847,90.847,0,0,1,13.4,1.871c2.263.484,4.51,1.018,6.752,1.577,6.536,1.619,13.072,3.4,19.881,4.525,2.158.353,4.341.643,6.552.841a78.917,78.917,0,0,0,21.7-1.342A146.14,146.14,0,0,0,116.5,8.76" transform="translate(-0.887 4.34)" fill="none" stroke="rgba(162,162,162,0.25)" stroke-miterlimit="10" stroke-width="0.5"/>
      <path id="Path_2071" data-name="Path 2071" d="M3.05,13.529c5.985-1.876,13.234-2.405,20.3-2.183a113.481,113.481,0,0,1,13.313,1.232c2.248.341,4.48.728,6.712,1.135,6.5,1.19,13.034,2.544,19.867,3.545,2.169.315,4.348.593,6.554.795a94.451,94.451,0,0,0,21.584-.538,119.829,119.829,0,0,0,26.469-6.876" transform="translate(-1.767 0.028)" fill="none" stroke="rgba(162,162,162,0.25)" stroke-miterlimit="10" stroke-width="0.5"/>
      <path id="Path_2072" data-name="Path 2072" d="M4.56,15.036a97.542,97.542,0,0,1,20.3-1.766q6.632.019,13.234.593,3.349.3,6.662.7c6.462.757,13.007,1.682,19.859,2.565,2.175.273,4.36.538,6.562.753a119.8,119.8,0,0,0,21.444.269A101.117,101.117,0,0,0,119.2,12.53" transform="translate(-2.642 -1.508)" fill="none" stroke="rgba(162,162,162,0.25)" stroke-miterlimit="10" stroke-width="0.5"/>
      <path id="Path_2073" data-name="Path 2073" d="M6.08,16.534q10.088-1.146,20.292-1.342c4.525-.126,8.955-.147,13.169-.05q3.319.088,6.616.261c6.416.324,12.975.841,19.844,1.581,2.186.231,4.367.488,6.564.719a168.071,168.071,0,0,0,21.314,1.072,87.737,87.737,0,0,0,26.7-4.365" transform="translate(-3.523 -2.768)" fill="none" stroke="rgba(162,162,162,0.25)" stroke-miterlimit="10" stroke-width="0.5"/>
      <path id="Path_2074" data-name="Path 2074" d="M7.59,17.9c5.918-.189,13.332-.534,20.289-.925,4.511-.261,8.911-.521,13.069-.685,2.2-.084,4.384-.147,6.571-.185a188.962,188.962,0,0,1,19.835.6q3.288.29,6.566.685c7.288.82,14.318,1.632,21.184,1.876,8.832.315,18.038-.231,26.818-3.112" transform="translate(-4.398 -3.685)" fill="none" stroke="rgba(162,162,162,0.25)" stroke-miterlimit="10" stroke-width="0.5"/>
      <path id="Path_2075" data-name="Path 2075" d="M9.11,17.2a146.968,146.968,0,0,0,20.28-.5c4.5-.4,8.825-.887,12.989-1.329,2.182-.227,4.354-.421,6.526-.622a129.6,129.6,0,0,1,19.821-.378c2.2.151,4.386.383,6.574.648,7.254.871,14.233,2.035,21.049,2.679,8.788.841,18.081.892,26.938-1.855" transform="translate(-5.279 -2.883)" fill="none" stroke="rgba(162,162,162,0.25)" stroke-miterlimit="10" stroke-width="0.5"/>
      <path id="Path_2076" data-name="Path 2076" d="M10.62,16.108c5.869.929,13.4.706,20.276-.088,4.482-.526,8.764-1.262,12.909-1.968,2.167-.366,4.319-.732,6.476-1.06a96.978,96.978,0,0,1,19.812-1.363c2.21.109,4.4.332,6.576.61,7.224.925,14.159,2.443,20.919,3.486,8.748,1.35,18.124,2.014,27.058-.6" transform="translate(-6.154 -1.739)" fill="none" stroke="rgba(162,162,162,0.25)" stroke-miterlimit="10" stroke-width="0.5"/>
      <path id="Path_2077" data-name="Path 2077" d="M12.14,14.911c5.845,1.489,13.431,1.329,20.273.332q6.493-1.019,12.819-2.595c2.179-.526,4.289-1.039,6.436-1.518a78.533,78.533,0,0,1,19.8-2.338,63.488,63.488,0,0,1,6.583.572c7.19.976,14.069,2.86,20.784,4.289,8.715,1.884,18.173,3.137,27.178.677" transform="translate(-7.035 -0.363)" fill="none" stroke="rgba(162,162,162,0.25)" stroke-miterlimit="10" stroke-width="0.5"/>
      <path id="Path_2078" data-name="Path 2078" d="M13.66,21.469c5.8,4.116,13.462,3.914,20.264,1.5a69.326,69.326,0,0,0,12.739-6.52c2.111-1.3,4.253-2.632,6.385-3.888C59.275,8.884,65.866,5.713,72.842,5.9a26.324,26.324,0,0,1,6.581,1.08c7.161,2.058,13.989,6.545,20.654,10.214,8.654,4.808,18.216,8.544,27.293,3.829" transform="translate(-7.916 -3.425)" fill="none" stroke="rgba(162,162,162,0.25)" stroke-miterlimit="10" stroke-width="0.5"/>
      <path id="Path_2079" data-name="Path 2079" d="M15.17,20.078c5.807,4.757,13.5,4.688,20.26,2.134A62.5,62.5,0,0,0,48.1,15.13c2.112-1.438,4.223-2.914,6.335-4.321C60.616,6.686,67.214,3.046,74.2,3a23.842,23.842,0,0,1,6.588.918c7.126,1.958,13.9,6.662,20.519,10.707,8.62,5.293,18.291,9.79,27.418,5.744" transform="translate(-8.791 -1.75)" fill="none" stroke="rgba(162,162,162,0.25)" stroke-miterlimit="10" stroke-width="0.5"/>
      <path id="Path_2080" data-name="Path 2080" d="M16.69,18.689c5.772,5.361,13.529,5.4,20.23,2.684S49.663,13.5,55.809,8.962,68.562.32,75.58.044c9.584-.383,18.414,6.305,26.984,12.071s18.319,11.013,27.528,7.491" transform="translate(-9.671 -0.028)" fill="none" stroke="rgba(162,162,162,0.25)" stroke-miterlimit="10" stroke-width="0.5"/>
    </g>
  </g>
</svg>
